<svg width="16" height="16" viewBox="0 0 16 16" fill="none" xmlns="http://www.w3.org/2000/svg">
<g id="fi-rr-search" clip-path="url(#clip0_400_6795)">
<path id="Vector" d="M15.8045 14.8628L11.8252 10.8835C12.9096 9.55723 13.4428 7.86489 13.3144 6.15654C13.1861 4.44819 12.406 2.85452 11.1356 1.70518C9.86516 0.555838 8.20158 -0.0612406 6.48895 -0.0184194C4.77632 0.0244018 3.14566 0.723847 1.93426 1.93524C0.72287 3.14663 0.0234252 4.77729 -0.019396 6.48993C-0.0622172 8.20256 0.554862 9.86614 1.7042 11.1366C2.85354 12.407 4.44721 13.187 6.15556 13.3154C7.86392 13.4438 9.55625 12.9106 10.8825 11.8262L14.8619 15.8055C14.9876 15.9269 15.156 15.9941 15.3308 15.9926C15.5056 15.9911 15.6728 15.921 15.7964 15.7974C15.92 15.6738 15.9901 15.5066 15.9916 15.3318C15.9932 15.157 15.926 14.9886 15.8045 14.8628ZM6.66652 12.0008C5.61169 12.0008 4.58054 11.688 3.70348 11.102C2.82642 10.516 2.14283 9.68301 1.73916 8.70848C1.3355 7.73394 1.22988 6.66158 1.43567 5.62702C1.64145 4.59245 2.14941 3.64214 2.89529 2.89626C3.64117 2.15038 4.59147 1.64243 5.62604 1.43664C6.6606 1.23085 7.73296 1.33647 8.7075 1.74014C9.68204 2.14381 10.515 2.82739 11.101 3.70446C11.6871 4.58152 11.9999 5.61266 11.9999 6.6675C11.9983 8.0815 11.4359 9.43713 10.436 10.437C9.43615 11.4368 8.08052 11.9992 6.66652 12.0008Z" fill="#1E1E1E"/>
</g>
<defs>
<clipPath id="clip0_400_6795">
<rect width="16" height="16" fill="white"/>
</clipPath>
</defs>
</svg>
