<svg width="21" height="20" viewBox="0 0 21 20" fill="none" xmlns="http://www.w3.org/2000/svg">
<g clip-path="url(#clip0_248_4372)">
<path d="M11.333 0.833688C11.333 0.612674 11.4208 0.400712 11.5771 0.244432C11.7333 0.0881516 11.9453 0.000354244 12.1663 0.000354244C14.3757 0.00278058 16.4939 0.881534 18.0562 2.44381C19.6185 4.00609 20.4972 6.1243 20.4996 8.33369C20.4996 8.5547 20.4118 8.76666 20.2556 8.92294C20.0993 9.07922 19.8873 9.16702 19.6663 9.16702C19.4453 9.16702 19.2333 9.07922 19.077 8.92294C18.9208 8.76666 18.833 8.5547 18.833 8.33369C18.831 6.56619 18.128 4.87165 16.8782 3.62183C15.6283 2.37202 13.9338 1.66901 12.1663 1.66702C11.9453 1.66702 11.7333 1.57922 11.5771 1.42294C11.4208 1.26666 11.333 1.0547 11.333 0.833688ZM12.1663 5.00035C13.0504 5.00035 13.8982 5.35154 14.5233 5.97667C15.1485 6.60179 15.4996 7.44963 15.4996 8.33369C15.4996 8.5547 15.5874 8.76666 15.7437 8.92294C15.9 9.07922 16.112 9.16702 16.333 9.16702C16.554 9.16702 16.766 9.07922 16.9222 8.92294C17.0785 8.76666 17.1663 8.5547 17.1663 8.33369C17.165 7.00801 16.6378 5.73701 15.7004 4.79962C14.763 3.86222 13.492 3.33501 12.1663 3.33369C11.9453 3.33369 11.7333 3.42149 11.5771 3.57777C11.4208 3.73405 11.333 3.94601 11.333 4.16702C11.333 4.38804 11.4208 4.6 11.5771 4.75628C11.7333 4.91256 11.9453 5.00035 12.1663 5.00035ZM19.7438 13.9495C20.2267 14.4338 20.4979 15.0898 20.4979 15.7737C20.4979 16.4576 20.2267 17.1136 19.7438 17.5979L18.9855 18.472C12.1605 25.0062 -4.44783 8.40202 1.98549 1.55535L2.94383 0.722021C3.42863 0.252585 4.07877 -0.00710486 4.75358 -0.000866721C5.42839 0.00537142 6.07361 0.277036 6.54966 0.755354C6.57549 0.781188 8.11965 2.78702 8.11965 2.78702C8.57784 3.26838 8.83291 3.9078 8.83182 4.57236C8.83073 5.23692 8.57358 5.8755 8.11382 6.35535L7.14882 7.56869C7.68286 8.86628 8.46804 10.0456 9.45924 11.0388C10.4504 12.032 11.6281 12.8195 12.9246 13.3562L14.1455 12.3854C14.6254 11.926 15.2639 11.6691 15.9282 11.6682C16.5926 11.6672 17.2318 11.9223 17.713 12.3804C17.713 12.3804 19.718 13.9237 19.7438 13.9495ZM18.5971 15.1612C18.5971 15.1612 16.603 13.627 16.5771 13.6012C16.4055 13.431 16.1735 13.3355 15.9317 13.3355C15.69 13.3355 15.458 13.431 15.2863 13.6012C15.2638 13.6245 13.583 14.9637 13.583 14.9637C13.4697 15.0538 13.3349 15.1129 13.1919 15.1352C13.0488 15.1574 12.9024 15.1419 12.7671 15.0904C11.0875 14.465 9.56193 13.486 8.29368 12.2196C7.02543 10.9532 6.04416 9.42905 5.41632 7.75036C5.36065 7.61323 5.34251 7.46376 5.36374 7.3173C5.38498 7.17085 5.44483 7.03268 5.53716 6.91702C5.53716 6.91702 6.87632 5.23535 6.89882 5.21369C7.06904 5.04201 7.16455 4.81004 7.16455 4.56827C7.16455 4.32651 7.06904 4.09453 6.89882 3.92285C6.87299 3.89785 5.33882 1.90202 5.33882 1.90202C5.16457 1.74578 4.93716 1.6621 4.7032 1.66814C4.46923 1.67419 4.24644 1.76949 4.08049 1.93452L3.12216 2.76785C-1.5795 8.42119 12.813 22.0154 17.7671 17.3337L18.5263 16.4587C18.7042 16.2939 18.8111 16.0664 18.8243 15.8243C18.8375 15.5821 18.756 15.3444 18.5971 15.1612Z" fill="white"/>
</g>
<defs>
<clipPath id="clip0_248_4372">
<rect width="20" height="20" fill="white" transform="translate(0.5)"/>
</clipPath>
</defs>
</svg>
