<svg width="20" height="21" viewBox="0 0 20 21" fill="none" xmlns="http://www.w3.org/2000/svg">
<g clip-path="url(#clip0_615_9856)">
<path d="M15.5468 1.27473L5.38683 11.4347C4.99878 11.8207 4.69114 12.2798 4.48173 12.7854C4.27231 13.2911 4.16528 13.8333 4.16683 14.3806V15.4997C4.16683 15.7207 4.25462 15.9327 4.4109 16.089C4.56718 16.2453 4.77915 16.3331 5.00016 16.3331H6.11933C6.66663 16.3346 7.2088 16.2276 7.71446 16.0182C8.22011 15.8088 8.6792 15.5011 9.06516 15.1131L19.2252 4.95307C19.7122 4.46488 19.9856 3.80346 19.9856 3.1139C19.9856 2.42434 19.7122 1.76293 19.2252 1.27473C18.7299 0.801313 18.0711 0.537109 17.386 0.537109C16.7008 0.537109 16.0421 0.801313 15.5468 1.27473V1.27473ZM18.0468 3.77473L7.88683 13.9347C7.41693 14.4018 6.78183 14.6647 6.11933 14.6664H5.83349V14.3806C5.83523 13.7181 6.09813 13.083 6.56516 12.6131L16.7252 2.45307C16.9031 2.28303 17.1398 2.18815 17.386 2.18815C17.6321 2.18815 17.8688 2.28303 18.0468 2.45307C18.2218 2.6285 18.32 2.86614 18.32 3.1139C18.32 3.36166 18.2218 3.59931 18.0468 3.77473V3.77473Z" fill="#1E1E1E"/>
<path d="M19.1667 7.9825C18.9457 7.9825 18.7337 8.0703 18.5774 8.22658C18.4211 8.38286 18.3333 8.59482 18.3333 8.81583V13H15C14.337 13 13.7011 13.2634 13.2322 13.7322C12.7634 14.2011 12.5 14.837 12.5 15.5V18.8333H4.16667C3.50363 18.8333 2.86774 18.5699 2.3989 18.1011C1.93006 17.6323 1.66667 16.9964 1.66667 16.3333V4.66667C1.66667 4.00363 1.93006 3.36774 2.3989 2.8989C2.86774 2.43006 3.50363 2.16667 4.16667 2.16667H11.7017C11.9227 2.16667 12.1346 2.07887 12.2909 1.92259C12.4472 1.76631 12.535 1.55435 12.535 1.33333C12.535 1.11232 12.4472 0.900358 12.2909 0.744078C12.1346 0.587797 11.9227 0.5 11.7017 0.5H4.16667C3.062 0.501323 2.00297 0.940735 1.22185 1.72185C0.440735 2.50296 0.00132321 3.562 0 4.66667L0 16.3333C0.00132321 17.438 0.440735 18.497 1.22185 19.2782C2.00297 20.0593 3.062 20.4987 4.16667 20.5H13.6192C14.1666 20.5016 14.7089 20.3945 15.2147 20.1851C15.7205 19.9757 16.1797 19.6681 16.5658 19.28L18.7792 17.065C19.1673 16.6791 19.475 16.22 19.6846 15.7143C19.8941 15.2087 20.0013 14.6665 20 14.1192V8.81583C20 8.59482 19.9122 8.38286 19.7559 8.22658C19.5996 8.0703 19.3877 7.9825 19.1667 7.9825ZM15.3875 18.1017C15.0525 18.4358 14.6289 18.6672 14.1667 18.7683V15.5C14.1667 15.279 14.2545 15.067 14.4107 14.9107C14.567 14.7545 14.779 14.6667 15 14.6667H18.2708C18.1677 15.1279 17.9367 15.5508 17.6042 15.8867L15.3875 18.1017Z" fill="#1E1E1E"/>
</g>
<defs>
<clipPath id="clip0_615_9856">
<rect width="20" height="20" fill="white" transform="translate(0 0.5)"/>
</clipPath>
</defs>
</svg>
