<svg width="20" height="21" viewBox="0 0 20 21" fill="none" xmlns="http://www.w3.org/2000/svg">
<g clip-path="url(#clip0_615_9857)">
<path d="M17.5 3.83333H14.9166C14.7232 2.89284 14.2115 2.04779 13.4677 1.4406C12.7239 0.833408 11.7935 0.501212 10.8333 0.5L9.16663 0.5C8.20646 0.501212 7.27606 0.833408 6.53225 1.4406C5.78844 2.04779 5.27671 2.89284 5.08329 3.83333H2.49996C2.27895 3.83333 2.06698 3.92113 1.9107 4.07741C1.75442 4.23369 1.66663 4.44565 1.66663 4.66667C1.66663 4.88768 1.75442 5.09964 1.9107 5.25592C2.06698 5.4122 2.27895 5.5 2.49996 5.5H3.33329V16.3333C3.33462 17.438 3.77403 18.497 4.55514 19.2782C5.33626 20.0593 6.3953 20.4987 7.49996 20.5H12.5C13.6046 20.4987 14.6637 20.0593 15.4448 19.2782C16.2259 18.497 16.6653 17.438 16.6666 16.3333V5.5H17.5C17.721 5.5 17.9329 5.4122 18.0892 5.25592C18.2455 5.09964 18.3333 4.88768 18.3333 4.66667C18.3333 4.44565 18.2455 4.23369 18.0892 4.07741C17.9329 3.92113 17.721 3.83333 17.5 3.83333ZM9.16663 2.16667H10.8333C11.3502 2.1673 11.8542 2.32781 12.2763 2.6262C12.6984 2.92459 13.0178 3.34624 13.1908 3.83333H6.80913C6.98211 3.34624 7.30154 2.92459 7.72361 2.6262C8.14569 2.32781 8.64973 2.1673 9.16663 2.16667ZM15 16.3333C15 16.9964 14.7366 17.6323 14.2677 18.1011C13.7989 18.5699 13.163 18.8333 12.5 18.8333H7.49996C6.83692 18.8333 6.20103 18.5699 5.73219 18.1011C5.26335 17.6323 4.99996 16.9964 4.99996 16.3333V5.5H15V16.3333Z" fill="#F0423C"/>
<path d="M8.33333 15.4987C8.55434 15.4987 8.76631 15.4109 8.92259 15.2546C9.07887 15.0983 9.16666 14.8864 9.16666 14.6654V9.66536C9.16666 9.44435 9.07887 9.23239 8.92259 9.07611C8.76631 8.91983 8.55434 8.83203 8.33333 8.83203C8.11232 8.83203 7.90036 8.91983 7.74408 9.07611C7.5878 9.23239 7.5 9.44435 7.5 9.66536V14.6654C7.5 14.8864 7.5878 15.0983 7.74408 15.2546C7.90036 15.4109 8.11232 15.4987 8.33333 15.4987Z" fill="#F0423C"/>
<path d="M11.6665 15.4987C11.8875 15.4987 12.0995 15.4109 12.2558 15.2546C12.4121 15.0983 12.4999 14.8864 12.4999 14.6654V9.66536C12.4999 9.44435 12.4121 9.23239 12.2558 9.07611C12.0995 8.91983 11.8875 8.83203 11.6665 8.83203C11.4455 8.83203 11.2336 8.91983 11.0773 9.07611C10.921 9.23239 10.8332 9.44435 10.8332 9.66536V14.6654C10.8332 14.8864 10.921 15.0983 11.0773 15.2546C11.2336 15.4109 11.4455 15.4987 11.6665 15.4987Z" fill="#F0423C"/>
</g>
<defs>
<clipPath id="clip0_615_9857">
<rect width="20" height="20" fill="white" transform="translate(0 0.5)"/>
</clipPath>
</defs>
</svg>
